<svg xmlns="http://www.w3.org/2000/svg" width="50" height="51" viewBox="0 0 50 51">
    <defs>
        <linearGradient id="3d9xmgzo9a" x1="100%" x2=".992%" y1="21.52%" y2="77.915%">
            <stop offset="0%" stop-color="#3765FF"/>
            <stop offset="30.181%" stop-color="#3561FD"/>
            <stop offset="100%" stop-color="#0F1ADB"/>
        </linearGradient>
        <linearGradient id="580tb20nzb" x1="100%" x2="0%" y1="23.554%" y2="76.446%">
            <stop offset="0%" stop-color="#FFD14E"/>
            <stop offset="100%" stop-color="#F16B25"/>
        </linearGradient>
        <linearGradient id="fr8olru3lc" x1="100%" x2="0%" y1="1.36%" y2="98.64%">
            <stop offset="0%" stop-color="#FFD14E"/>
            <stop offset="100%" stop-color="#F16B25"/>
        </linearGradient>
    </defs>
    <g fill="none" fill-rule="evenodd">
        <g>
            <g>
                <g>
                    <g transform="translate(-864 -503) translate(848 489.5) translate(16 14.25) translate(2 2)">
                        <circle cx="23" cy="23" r="22.5" fill="#E8F1FC"/>
                        <path fill="url(#3d9xmgzo9a)" d="M5 4.25h36.75c.828 0 1.5.672 1.5 1.5v27c0 .828-.672 1.5-1.5 1.5H5c-.828 0-1.5-.672-1.5-1.5v-27c0-.828.672-1.5 1.5-1.5z"/>
                        <path fill="#FFF" d="M38 6.125C38 7.989 39.511 9.5 41.375 9.5c.127 0 .252-.007.375-.02v19.54c-.123-.013-.248-.02-.375-.02C39.511 29 38 30.511 38 32.375c0 .127.007.252.02.375H8.73c.013-.123.02-.248.02-.375C8.75 30.511 7.239 29 5.375 29c-.127 0-.252.007-.375.02V9.48c.123.013.248.02.375.02 1.864 0 3.375-1.511 3.375-3.375 0-.127-.007-.252-.02-.375h29.29c-.013.123-.02.248-.02.375zM13.837 9.5c-3.314 0-6 2.686-6 6s2.686 6 6 6 6-2.686 6-6-2.686-6-6-6zm20.515 6.875H23.875c-.483 0-.875.392-.875.875s.392.875.875.875h10.477c.483 0 .875-.392.875-.875s-.392-.875-.875-.875zm-7.01-3.5h-3.467c-.483 0-.875.392-.875.875s.392.875.875.875h3.466c.483 0 .875-.392.875-.875s-.392-.875-.875-.875zm11.745 0H30.59c-.483 0-.875.392-.875.875s.392.875.875.875h8.496c.483 0 .875-.392.875-.875s-.392-.875-.875-.875zM11.792 14.75c.087 0 .16.06.169.138l.001.018v2.344h.17v.469h1.023v-.469h.17v-2.344c0-.08.067-.146.151-.155H14.178c.087 0 .16.06.17.137V17.25h.171v.469h1.023v-.469h.17v-2.344c0-.08.066-.146.15-.155H16.565c.088 0 .16.06.17.137V17.25h.171v.469h.512c.094 0 .17.07.17.156v.469c0 .086-.076.156-.17.156h-7.16c-.094 0-.17-.07-.17-.156v-.469c0-.086.076-.156.17-.156h.512v-.469h.17v-2.344c0-.08.066-.146.151-.155H11.792zm2.237-3.69l3.558 2.428v.341c0 .095-.076.171-.17.171h-7.16c-.094 0-.17-.076-.17-.17v-.342l3.558-2.429c.116-.079.268-.079.384 0z" opacity=".6" style="mix-blend-mode:overlay"/>
                        <g>
                            <path fill="url(#580tb20nzb)" d="M10.99 14.744h-.04l-.879-.033-.652.575c-.205.18-.469.279-.744.279-.144 0-.286-.026-.42-.08l-.815-.324-.814.324c-.134.054-.276.08-.42.08-.275 0-.54-.1-.744-.279l-.653-.575-.879.033h-.04c-.413 0-.788-.22-.981-.578l-.41-.758-.034-.011v6.694c0 .402.435.664.804.482l3.925-1.92c.158-.075.342-.075.5 0l3.918 1.922c.369.182.804-.08.804-.482V13.4l-.033.01-.411.76c-.191.354-.568.575-.981.575z" transform="translate(15.875 22.25)"/>
                            <path fill="url(#fr8olru3lc)" d="M8.636 0c.13 0 .26.05.36.14l.633.572c.099.09.228.14.361.14h.02l.85-.033h.02c.198 0 .383.11.475.286l.398.755c.064.122.176.217.31.26l.81.262c.196.064.34.234.368.438l.118.845c.02.14.092.265.202.35l.673.523c.163.127.238.336.195.538l-.18.834c-.028.135-.005.28.07.397l.454.723c.11.176.11.397 0 .572l-.458.722c-.075.118-.1.26-.07.398l.18.834c.043.202-.032.41-.196.537l-.672.523c-.11.086-.183.21-.202.35l-.119.845c-.028.204-.172.376-.367.438l-.615.198-.198.065c-.133.043-.245.135-.31.26l-.397.754c-.093.177-.278.286-.475.286h-.02l-.851-.032h-.02c-.133 0-.262.05-.36.14l-.633.572c-.1.092-.23.14-.36.14-.067 0-.136-.016-.203-.042l-.789-.322c-.064-.028-.133-.04-.202-.04s-.137.014-.202.04l-.789.322c-.064.028-.133.041-.202.041-.131 0-.26-.05-.361-.14l-.632-.571c-.099-.09-.228-.14-.361-.14h-.02l-.85.032h-.02c-.198 0-.383-.11-.475-.286l-.398-.754c-.065-.123-.176-.217-.31-.26l-.197-.065-.615-.198c-.196-.064-.34-.234-.368-.438l-.118-.845c-.02-.14-.092-.264-.202-.35l-.673-.523C.48 9.966.404 9.758.447 9.556l.18-.834c.029-.136.005-.28-.07-.398l-.454-.722c-.11-.177-.11-.398 0-.572l.454-.723c.075-.118.101-.26.07-.397l-.18-.834c-.043-.202.033-.411.196-.538l.681-.522c.11-.086.183-.21.203-.35l.118-.846c.028-.204.172-.376.367-.438l.81-.262c.134-.043.246-.136.31-.26l.398-.755c.093-.176.277-.286.475-.286h.02l.85.032h.02c.134 0 .262-.05.361-.14L5.888.14C5.99.047 6.118 0 6.25 0c.066 0 .135.015.202.04l.789.323c.064.028.133.041.202.041.068 0 .137-.015.202-.04L8.434.04C8.498.013 8.567 0 8.636 0z" transform="translate(15.875 22.25)"/>
                            <path fill="#FFF" d="M7.44 1.81c.752 0 1.483.146 2.171.437.665.28 1.26.682 1.771 1.193.512.512.913 1.109 1.194 1.772.29.688.437 1.418.437 2.17s-.146 1.483-.437 2.17c-.109.253-.232.498-.374.731-.23.376-.503.727-.82 1.04-.512.513-1.108.914-1.771 1.194-.688.291-1.419.438-2.17.438-.752 0-1.483-.147-2.171-.438-.665-.28-1.26-.681-1.771-1.193-.317-.317-.59-.665-.82-1.04-.142-.234-.268-.477-.374-.731-.29-.688-.437-1.42-.437-2.17 0-.753.146-1.483.437-2.171.28-.665.682-1.26 1.194-1.772.512-.511 1.108-.913 1.771-1.193.688-.291 1.419-.438 2.17-.438zm.078 1.787c-.264 0-.479.218-.479.487v.369c-1.02.165-1.596.781-1.596 1.58 0 1.132.452 1.497 2.089 1.78l.093.017c.76.144 1.01.358 1.01.802 0 .115-.016.21-.073.308-.12.205-.393.342-.95.342-.878 0-1.211-.288-1.211-.65 0-.269-.215-.487-.48-.487-.264 0-.478.218-.478.487 0 .8.575 1.415 1.596 1.58v.37l.003.05c.024.245.228.437.476.437.265 0 .48-.218.48-.488v-.345c.667-.077 1.13-.357 1.387-.798.164-.28.209-.531.209-.806 0-1.044-.664-1.566-1.902-1.78-1.16-.2-1.28-.256-1.29-.728l-.001-.09c0-.362.333-.65 1.211-.65.503 0 .775.137.917.353.08.12.107.242.107.296l.002.05c.025.246.229.438.477.438.264 0 .479-.219.479-.488 0-.23-.067-.534-.27-.84-.272-.412-.716-.682-1.326-.76v-.349l-.003-.05c-.025-.245-.229-.437-.477-.437z" opacity=".5" style="mix-blend-mode:overlay" transform="translate(15.875 22.25)"/>
                        </g>
                    </g>
                </g>
            </g>
        </g>
    </g>
</svg>
