<svg xmlns="http://www.w3.org/2000/svg" width="50" height="51" viewBox="0 0 50 51">
    <defs>
        <linearGradient id="zfmzwpqqia" x1="100%" x2=".992%" y1="23.227%" y2="76.242%">
            <stop offset="0%" stop-color="#3765FF"/>
            <stop offset="30.181%" stop-color="#3561FD"/>
            <stop offset="100%" stop-color="#0F1ADB"/>
        </linearGradient>
        <linearGradient id="xng0lh26vb" x1="100%" x2="0%" y1="0%" y2="100%">
            <stop offset="0%" stop-color="#FFD14E"/>
            <stop offset="100%" stop-color="#F16B25"/>
        </linearGradient>
    </defs>
    <g fill="none" fill-rule="evenodd">
        <g>
            <g>
                <g>
                    <g transform="translate(-864 -409) translate(848 395) translate(16 14.25) translate(2 2)">
                        <circle cx="23" cy="23" r="22.5" fill="#E8F1FC"/>
                        <path fill="url(#zfmzwpqqia)" d="M37.94 11.938c.084.138.121.3.106.46l-.474 4.959c1.275 1.492 2.198 3.222 2.664 5.098h1.696c.414 0 .75.336.75.75v6.214c0 .414-.336.75-.75.75h-2.435c-.85 1.852-2.168 3.5-3.827 4.837v3.528c0 .414-.336.75-.75.75h-4.81c-.415 0-.75-.336-.75-.75v-.453c-1.338.327-2.75.502-4.208.502-1.206 0-2.38-.12-3.506-.346v.297c0 .414-.335.75-.75.75h-4.81c-.414 0-.75-.336-.75-.75v-2.997c-2.281-1.627-4.01-3.809-4.913-6.306-1.48.46-2.84.257-3.988-.692-1.62-1.338-2.018-3.193-1.213-5.302.235-.616.95-.933 1.598-.71.647.224.981.904.746 1.52-.47 1.229-.295 2.042.504 2.701.452.374 1.016.457 1.776.172-.08-.544-.12-1.098-.12-1.66 0-1.803.416-3.524 1.168-5.093 2.316-4.83 7.828-8.229 14.258-8.229 1.58 0 3.106.205 4.542.587 1.259.334 2.45.804 3.548 1.39l3.668-2.229c.354-.215.815-.102 1.03.252zm-4.724 7.713c-.968 0-1.753.785-1.753 1.753 0 .968.785 1.753 1.753 1.753.968 0 1.753-.785 1.753-1.753 0-.968-.785-1.753-1.753-1.753z"/>
                        <g transform="translate(2 5)">
                            <circle cx="9.375" cy="9.375" r="9.375" fill="url(#xng0lh26vb)"/>
                            <path fill="#FFF" d="M9.375 2.25c3.935 0 7.125 3.19 7.125 7.125S13.31 16.5 9.375 16.5 2.25 13.31 2.25 9.375 5.44 2.25 9.375 2.25zm0 1.5c-.43 0-.779.35-.779.783v.592C6.936 5.39 6 6.38 6 7.663c0 1.818.735 2.404 3.397 2.859l.152.027c1.236.23 1.643.575 1.643 1.288 0 .184-.027.338-.12.495-.194.329-.638.548-1.544.548-1.428 0-1.97-.463-1.97-1.043 0-.432-.349-.783-.78-.783-.43 0-.778.35-.778.783 0 1.283.936 2.273 2.596 2.538v.592l.004.08c.04.395.372.703.775.703.43 0 .779-.35.779-.783v-.555c1.085-.122 1.839-.573 2.257-1.28.267-.452.339-.854.339-1.295 0-1.677-1.078-2.515-3.092-2.859-1.887-.322-2.083-.41-2.099-1.17l-.001-.145c0-.58.542-1.043 1.97-1.043.817 0 1.26.22 1.491.567.13.192.173.39.173.476l.004.08c.04.395.372.703.775.703.43 0 .779-.35.779-.783 0-.37-.109-.858-.438-1.35-.443-.662-1.165-1.095-2.157-1.22l-.001-.56-.004-.08c-.04-.395-.372-.703-.775-.703z" opacity=".4" style="mix-blend-mode:overlay"/>
                        </g>
                    </g>
                </g>
            </g>
        </g>
    </g>
</svg>
