<svg xmlns="http://www.w3.org/2000/svg" width="50" height="51" viewBox="0 0 50 51">
    <defs>
        <linearGradient id="frv0lxcj7a" x1="98.709%" x2="2.258%" y1="0%" y2="99.008%">
            <stop offset="0%" stop-color="#3765FF"/>
            <stop offset="30.181%" stop-color="#3561FD"/>
            <stop offset="100%" stop-color="#0F1ADB"/>
        </linearGradient>
        <linearGradient id="xxie6ud3yb" x1="100%" x2="0%" y1="0%" y2="100%">
            <stop offset="0%" stop-color="#FFD14E"/>
            <stop offset="100%" stop-color="#F16B25"/>
        </linearGradient>
    </defs>
    <g fill="none" fill-rule="evenodd">
        <g>
            <g>
                <g>
                    <g transform="translate(-864 -220) translate(848 206) translate(16 14.25) translate(2 2)">
                        <circle cx="23" cy="23" r="22.5" fill="#E8F1FC"/>
                        <g transform="translate(3.5 3.5)">
                            <path fill="url(#frv0lxcj7a)" d="M7.5 16.15c.38 0 .693.283.743.649l.007.102v11.25H9v2.25h4.5v-2.25h.75V16.9c0-.38.282-.694.648-.743L15 16.15h3c.38 0 .693.282.743.648l.007.102v11.25h.75v2.25H24v-2.25h.75V16.9c0-.38.282-.694.648-.743l.102-.007h3c.38 0 .693.282.743.648l.007.102v11.25H30v2.25h2.25c.414 0 .75.336.75.75v2.25c0 .414-.336.75-.75.75H.75c-.414 0-.75-.336-.75-.75v-2.25c0-.414.336-.75.75-.75H3v-2.25h.75V16.9c0-.38.282-.694.648-.743l.102-.007h3zM17.345.978L33 11.65v1.5c0 .414-.336.75-.75.75H.75c-.414 0-.75-.336-.75-.75v-1.5L15.655.977c.51-.348 1.18-.348 1.69 0z"/>
                            <circle fill="#FFF" opacity=".4" style="mix-blend-mode:overlay" cx="16.5" cy="8.651" r="3"/>
                        </g>
                        <g transform="translate(23.75 23.75)">
                            <circle cx="9.375" cy="9.375" r="9.375" fill="url(#xxie6ud3yb)"/>
                            <path fill="#FFF" d="M9.375 2.25c3.935 0 7.125 3.19 7.125 7.125S13.31 16.5 9.375 16.5 2.25 13.31 2.25 9.375 5.44 2.25 9.375 2.25zm0 1.5c-.43 0-.779.35-.779.783v.592C6.936 5.39 6 6.38 6 7.663c0 1.818.735 2.404 3.397 2.859l.152.027c1.236.23 1.643.575 1.643 1.288 0 .184-.027.338-.12.495-.194.329-.638.548-1.544.548-1.428 0-1.97-.463-1.97-1.043 0-.432-.349-.783-.78-.783-.43 0-.778.35-.778.783 0 1.283.936 2.273 2.596 2.538v.592l.004.08c.04.395.372.703.775.703.43 0 .779-.35.779-.783v-.555c1.085-.122 1.839-.573 2.257-1.28.267-.452.339-.854.339-1.295 0-1.677-1.078-2.515-3.092-2.859-1.887-.322-2.083-.41-2.099-1.17l-.001-.145c0-.58.542-1.043 1.97-1.043.817 0 1.26.22 1.491.567.13.192.173.39.173.476l.004.08c.04.395.372.703.775.703.43 0 .779-.35.779-.783 0-.37-.109-.858-.438-1.35-.443-.662-1.165-1.095-2.157-1.22l-.001-.56-.004-.08c-.04-.395-.372-.703-.775-.703z" opacity=".4" style="mix-blend-mode:overlay"/>
                        </g>
                    </g>
                </g>
            </g>
        </g>
    </g>
</svg>
